<svg width="107" height="107" viewBox="0 0 107 107" fill="none" xmlns="http://www.w3.org/2000/svg">
<path fill-rule="evenodd" clip-rule="evenodd" d="M30.8884 106.626H76.8817C94.8738 106.626 106.957 94.0058 106.957 75.2267V31.8872C106.957 13.108 94.8738 0.487549 76.8871 0.487549H30.8884C12.9017 0.487549 0.818359 13.108 0.818359 31.8872V75.2267C0.818359 94.0058 12.9017 106.626 30.8884 106.626ZM35.3083 48.2498C27.9919 48.2498 22.047 42.2968 22.047 34.9824C22.047 27.668 27.9919 21.7151 35.3083 21.7151C42.6193 21.7151 48.5696 27.668 48.5696 34.9824C48.5696 42.2968 42.6193 48.2498 35.3083 48.2498ZM95.3915 69.127C97.1685 73.6836 96.2453 79.1603 94.3455 83.6731C92.0935 89.0403 87.7816 93.104 82.349 94.8785C79.9369 95.6671 77.4073 96.0122 74.8832 96.0122H30.1577C25.707 96.0122 21.7686 94.9442 18.54 92.9561C16.5175 91.7075 16.1599 88.8267 17.6595 86.9591C20.1677 83.8374 22.6438 80.7047 25.1413 77.5447C29.9015 71.4984 33.1088 69.7458 36.6736 71.2848C38.1198 71.9201 39.5713 72.873 41.0655 73.8807C45.0466 76.5862 50.5806 80.3049 57.8703 76.2686C62.8588 73.4746 65.7521 68.6821 68.2717 64.5087L68.3139 64.4389C68.4924 64.1461 68.6694 63.8533 68.8459 63.5613L68.8459 63.5612C69.6927 62.1602 70.5281 60.7779 71.4731 59.5044C72.6578 57.9106 77.0498 52.9268 82.7385 56.4757C86.362 58.7102 89.4092 61.7334 92.6698 64.9701C93.9132 66.2079 94.7991 67.6154 95.3915 69.127Z" fill="#2D2E36"/>
</svg>
