<svg width="46" height="46" viewBox="0 0 46 46" fill="none" xmlns="http://www.w3.org/2000/svg">
<path fill-rule="evenodd" clip-rule="evenodd" d="M13.6688 45.7765H33.2106C40.8551 45.7765 45.9891 40.4142 45.9891 32.4353V14.0211C45.9891 6.04216 40.8551 0.679932 33.2129 0.679932H13.6688C6.02658 0.679932 0.892578 6.04216 0.892578 14.0211V32.4353C0.892578 40.4142 6.02658 45.7765 13.6688 45.7765ZM15.5466 20.9734C12.438 20.9734 9.91215 18.444 9.91215 15.3363C9.91215 12.2285 12.438 9.69921 15.5466 9.69921C18.653 9.69921 21.1811 12.2285 21.1811 15.3363C21.1811 18.444 18.653 20.9734 15.5466 20.9734ZM41.075 29.8437C41.8301 31.7797 41.4378 34.1067 40.6306 36.0241C39.6738 38.3045 37.8417 40.0311 35.5335 40.785C34.5086 41.1201 33.4339 41.2667 32.3614 41.2667H13.3583C11.4673 41.2667 9.79395 40.813 8.42217 39.9683C7.56282 39.4377 7.41091 38.2138 8.04805 37.4203C9.11373 36.0939 10.1658 34.7629 11.2269 33.4202C13.2495 30.8512 14.6122 30.1066 16.1268 30.7605C16.7413 31.0304 17.358 31.4353 17.9929 31.8635C19.6844 33.013 22.0357 34.593 25.1329 32.878C27.2525 31.6909 28.4818 29.6547 29.5523 27.8814L29.5702 27.8518C29.6459 27.7277 29.7208 27.6037 29.7956 27.48L29.7962 27.4789C30.156 26.8836 30.511 26.2963 30.9125 25.7552C31.4159 25.078 33.282 22.9605 35.699 24.4684C37.2386 25.4178 38.5333 26.7023 39.9186 28.0775C40.447 28.6034 40.8233 29.2014 41.075 29.8437Z" fill="#2D2E36"/>
</svg>
