<svg width="69" height="69" viewBox="0 0 69 69" fill="none" xmlns="http://www.w3.org/2000/svg">
<path fill-rule="evenodd" clip-rule="evenodd" d="M19.8934 68.7727H49.5651C61.1724 68.7727 68.9678 60.6308 68.9678 48.5157V20.556C68.9678 8.44098 61.1724 0.299072 49.5686 0.299072H19.8934C8.28951 0.299072 0.494141 8.44098 0.494141 20.556V48.5157C0.494141 60.6308 8.28951 68.7727 19.8934 68.7727ZM22.7449 31.1121C18.0249 31.1121 14.1896 27.2716 14.1896 22.5529C14.1896 17.8341 18.0249 13.9937 22.7449 13.9937C27.4615 13.9937 31.3002 17.8341 31.3002 22.5529C31.3002 27.2716 27.4615 31.1121 22.7449 31.1121ZM61.5066 44.5806C62.653 47.5202 62.0574 51.0535 60.8318 53.9648C59.3789 57.4274 56.5972 60.049 53.0924 61.1938C51.5363 61.7026 49.9044 61.9252 48.276 61.9252H19.4221C16.5508 61.9252 14.01 61.2362 11.9272 59.9536C10.6224 59.148 10.3917 57.2896 11.3591 56.0848C12.9772 54.0708 14.5747 52.0498 16.1859 50.0112C19.2568 46.1105 21.3259 44.9799 23.6257 45.9727C24.5587 46.3826 25.4951 46.9973 26.4591 47.6474C29.0274 49.3929 32.5976 51.7919 37.3004 49.1879C40.5187 47.3854 42.3853 44.2936 44.0107 41.6012L44.0379 41.5562C44.1531 41.3673 44.2673 41.1784 44.3811 40.9901L44.3812 40.99C44.9274 40.0861 45.4664 39.1944 46.0761 38.3728C46.8404 37.3446 49.6738 34.1294 53.3438 36.4189C55.6814 37.8605 57.6472 39.8108 59.7508 41.8989C60.5529 42.6974 61.1244 43.6054 61.5066 44.5806Z" fill="#2D2E36"/>
</svg>
