<svg width="41" height="31" viewBox="0 0 41 31" fill="none" xmlns="http://www.w3.org/2000/svg">
<path d="M34.0701 2.5372C31.5375 1.35226 28.8295 0.49109 25.9983 0.000732422C25.6506 0.629353 25.2444 1.47486 24.9644 2.14746C21.9548 1.69486 18.9729 1.69486 16.0187 2.14746C15.7387 1.47486 15.3233 0.629353 14.9725 0.000732422C12.1383 0.49109 9.42718 1.35542 6.89456 2.54348C1.78626 10.2628 0.401489 17.7904 1.09388 25.2111C4.48197 27.7412 7.76544 29.2782 10.9935 30.2839C11.7905 29.187 12.5014 28.0209 13.1137 26.792C11.9475 26.3489 10.8304 25.802 9.77493 25.1671C10.0549 24.9596 10.3288 24.7427 10.5935 24.5196C17.0311 27.5306 24.0258 27.5306 30.3866 24.5196C30.6543 24.7427 30.9281 24.9596 31.2051 25.1671C30.1465 25.8051 29.0264 26.352 27.8601 26.7952C28.4725 28.0209 29.1803 29.1902 29.9804 30.2871C33.2115 29.2813 36.498 27.7444 39.8861 25.2111C40.6986 16.6086 38.4983 9.15014 34.0701 2.5372ZM13.9908 20.6474C12.0583 20.6474 10.4734 18.8433 10.4734 16.6463C10.4734 14.4493 12.0244 12.6421 13.9908 12.6421C15.9572 12.6421 17.542 14.4461 17.5081 16.6463C17.5112 18.8433 15.9572 20.6474 13.9908 20.6474ZM26.9893 20.6474C25.0567 20.6474 23.4719 18.8433 23.4719 16.6463C23.4719 14.4493 25.0228 12.6421 26.9893 12.6421C28.9556 12.6421 30.5404 14.4461 30.5066 16.6463C30.5066 18.8433 28.9556 20.6474 26.9893 20.6474Z" fill="white"/>
</svg>
