<svg width="40" height="40" viewBox="0 0 40 40" fill="none" xmlns="http://www.w3.org/2000/svg">
<path fill-rule="evenodd" clip-rule="evenodd" d="M20.4146 0.709717C9.68365 0.709717 0.980469 9.4129 0.980469 20.1438C0.980469 30.8748 9.68365 39.5779 20.4146 39.5779C31.1231 39.5779 39.8487 30.8748 39.8487 20.1438C39.8487 9.4129 31.1186 0.709717 20.4146 0.709717ZM33.2495 9.66861C35.5689 12.4949 36.9596 16.0973 37 19.9958C36.4526 19.8926 30.9705 18.7711 25.4481 19.4709C25.3225 19.1972 25.2148 18.9012 25.0892 18.6051C24.7527 17.802 24.3714 16.9811 23.9945 16.2005C30.1092 13.7151 32.8906 10.1352 33.2495 9.66861ZM20.4146 3.57638C24.6316 3.57638 28.4897 5.15552 31.4192 7.74853C31.1231 8.17023 28.6153 11.5214 22.716 13.7331C19.9974 8.73548 16.9827 4.64858 16.5206 4.01603C17.7588 3.72443 19.0642 3.57638 20.4146 3.57638ZM13.3533 5.13757C13.7975 5.72975 16.7449 9.83908 19.5084 14.729C11.7518 16.7927 4.90139 16.7523 4.16117 16.7523C5.23785 11.6066 8.71463 7.33131 13.3533 5.13757ZM3.80227 20.1663C3.80227 19.9958 3.80227 19.8298 3.80227 19.6593C4.52006 19.6817 12.5727 19.7849 20.8542 17.2996C21.3387 18.2282 21.7829 19.1748 22.2046 20.1259C21.9937 20.1887 21.7604 20.2515 21.5496 20.3143C12.99 23.0778 8.44098 30.6235 8.05965 31.2561C5.42627 28.3221 3.80227 24.4236 3.80227 20.1663ZM20.4146 36.7561C16.5789 36.7561 13.0393 35.4507 10.2354 33.2569C10.5315 32.6468 13.9051 26.1553 23.2633 22.8849C23.3037 22.8624 23.3261 22.8624 23.3665 22.8445C25.7083 28.8919 26.6548 33.9747 26.9061 35.4282C24.9008 36.2896 22.7115 36.7561 20.4146 36.7561ZM29.6651 33.9074C29.4946 32.8935 28.6108 28.0485 26.4395 22.0819C31.648 21.2609 36.1969 22.6067 36.7667 22.7996C36.0534 27.4159 33.3976 31.3996 29.6651 33.9074Z" fill="white"/>
</svg>
