<svg width="38" height="38" viewBox="0 0 38 38" fill="none" xmlns="http://www.w3.org/2000/svg">
<path fill-rule="evenodd" clip-rule="evenodd" d="M19.2669 0.622314C14.2134 0.622314 13.5813 0.644442 11.5992 0.73052C10.0593 0.755613 8.53516 1.04158 7.09152 1.57649C5.85894 2.06043 4.73953 2.79218 3.80281 3.72608C2.86609 4.65998 2.13191 5.77602 1.64651 7.0049C1.10995 8.44418 0.823119 9.96419 0.797986 11.4995C0.711648 13.4756 0.689453 14.1055 0.689453 19.1439C0.689453 24.1822 0.711648 24.8121 0.797986 26.7883C0.823119 28.3235 1.10995 29.8435 1.64651 31.2828C2.13191 32.5117 2.86609 33.6277 3.80281 34.5616C4.73953 35.4955 5.85894 36.2273 7.09152 36.7112C8.53525 37.2458 10.0593 37.5318 11.5992 37.5572C13.5813 37.6433 14.2134 37.6654 19.2669 37.6654C24.3204 37.6654 24.9525 37.6433 26.9346 37.5572C28.4745 37.5318 29.9985 37.2458 31.4423 36.7112C32.6747 36.2271 33.7943 35.4953 34.731 34.5614C35.6677 33.6275 36.4017 32.5116 36.8873 31.2828C37.4235 29.8434 37.7103 28.3235 37.7358 26.7883C37.8221 24.8121 37.8443 24.1822 37.8443 19.1439C37.8443 14.1055 37.8221 13.4774 37.7358 11.4995C37.7103 9.96423 37.4235 8.44428 36.8873 7.0049C36.4017 5.77613 35.6677 4.66018 34.731 3.7263C33.7943 2.79243 32.6747 2.06062 31.4423 1.57649C29.998 1.04383 28.4742 0.757939 26.9346 0.73052C24.9525 0.644442 24.3204 0.622314 19.2669 0.622314ZM17.6138 3.94473H19.2669C24.2267 3.94473 24.8202 3.96663 26.7803 4.05271C27.9572 4.06765 29.1224 4.28825 30.2228 4.70463C31.0233 5.01559 31.7502 5.48893 32.3576 6.09454C32.965 6.70015 33.4396 7.42487 33.7515 8.22289C34.1688 9.31945 34.3901 10.4805 34.4054 11.6533C34.4917 13.6074 34.5139 14.1934 34.5139 19.1439C34.5139 24.0943 34.4917 24.6821 34.4054 26.6344C34.3902 27.8078 34.169 28.9695 33.7515 30.0666C33.4574 30.8736 32.9802 31.602 32.3572 32.1947C31.7605 32.8133 31.0308 33.2887 30.2228 33.5849C29.1202 33.9907 27.9556 34.2038 26.7803 34.2149C24.8202 34.301 24.2323 34.3229 19.2669 34.3229C14.3015 34.3229 13.7136 34.301 11.7517 34.2149C10.5781 34.1924 9.41638 33.9797 8.31139 33.5849C7.50625 33.2832 6.77731 32.8085 6.17662 32.1947C5.55354 31.602 5.07629 30.8737 4.78229 30.0666C4.36314 28.9629 4.14187 27.7944 4.12841 26.6143C4.04023 24.6602 4.04006 24.0741 4.04006 19.1439C4.04006 14.2136 4.04023 13.6074 4.12841 11.6533C4.14681 10.4737 4.36793 9.306 4.78229 8.20098C5.08162 7.39659 5.55813 6.66939 6.17662 6.07285C6.77731 5.45906 7.50625 4.98443 8.31139 4.68272C9.41635 4.28781 10.5781 4.07503 11.7517 4.05271C13.4729 3.96663 14.125 3.94473 17.6098 3.94473H17.6138ZM29.2012 7.02882C28.7598 7.02665 28.3276 7.155 27.9594 7.3977C27.5911 7.64041 27.3033 7.98658 27.1324 8.39235C26.9614 8.79812 26.9152 9.24534 26.9992 9.67741C27.0831 10.1095 27.2936 10.5069 27.6042 10.8196C27.9148 11.1323 28.3117 11.3462 28.7442 11.4342C29.1767 11.5222 29.6254 11.4803 30.034 11.3139C30.4427 11.1475 30.7929 10.8642 31.04 10.4995C31.287 10.1347 31.4199 9.70503 31.4221 9.26493C31.4226 8.67486 31.189 8.10863 30.7722 7.68968C30.3555 7.27073 29.7894 7.03317 29.1976 7.02882H29.2012ZM19.2687 9.63493C17.382 9.63493 15.5377 10.1928 13.969 11.2379C12.4002 12.2829 11.1776 13.7681 10.4556 15.506C9.73356 17.2439 9.54439 19.1561 9.91247 21.001C10.2806 22.8459 11.1894 24.5406 12.5235 25.8707C13.8576 27.2008 15.557 28.1067 17.4075 28.4737C19.258 28.8407 21.1762 28.6523 22.9193 27.9325C24.6624 27.2126 26.1523 25.9937 27.2005 24.4296C28.2487 22.8656 28.8083 21.0267 28.8083 19.1456C28.8086 17.8965 28.5617 16.6594 28.0822 15.5053C27.6028 14.3512 26.8999 13.3027 26.0138 12.4194C25.1278 11.5362 24.0761 10.8357 22.9184 10.3579C21.7607 9.88018 20.5199 9.63445 19.2669 9.63493H19.2687ZM19.2687 12.9793C20.492 12.9793 21.6878 13.3408 22.705 14.0184C23.7221 14.696 24.5151 15.6591 24.9832 16.7859C25.4514 17.9127 25.5735 19.1525 25.3348 20.3487C25.0962 21.5448 24.5073 22.6437 23.6423 23.5061C22.7773 24.3685 21.6753 24.9558 20.4756 25.1938C19.2758 25.4317 18.0318 25.3095 16.9016 24.8428C15.7714 24.3761 14.8056 23.5856 14.126 22.5716C13.4463 21.5575 13.0837 20.3653 13.0837 19.1456C13.0876 17.5117 13.74 15.9457 14.8987 14.7901C16.0574 13.6346 17.628 12.9836 19.2669 12.9793H19.2687Z" fill="white"/>
</svg>
