<svg width="39" height="40" viewBox="0 0 39 40" fill="none" xmlns="http://www.w3.org/2000/svg">
<path d="M34.6578 8.18492C34.5509 7.86907 34.4197 7.78161 34.2156 7.70386C33.7734 7.53379 33.0202 7.78647 33.0202 7.78647C33.0202 7.78647 6.46506 17.3347 4.94901 18.3891C4.62344 18.6175 4.51168 18.7487 4.45823 18.9042C4.19584 19.6573 5.01217 19.9878 5.01217 19.9878L11.8587 22.2181C11.8587 22.2181 12.1162 22.257 12.2037 22.1987C13.7586 21.2171 27.8696 12.3055 28.6859 12.0042C28.8122 11.9653 28.9094 12.0091 28.8851 12.0965C28.5596 13.2384 16.3048 24.1326 16.3048 24.1326C16.3048 24.1326 16.2562 24.1909 16.2271 24.2589L16.2125 24.2492L15.5759 31.0374C15.5759 31.0374 15.3087 33.1172 17.3884 31.0374C18.8559 29.57 20.2747 28.3406 20.989 27.743C23.3408 29.3659 25.8773 31.1638 26.9706 32.1065C27.5197 32.5778 27.9813 32.6555 28.3555 32.641C29.3953 32.6021 29.682 31.4602 29.682 31.4602C29.682 31.4602 34.5217 11.9799 34.6821 9.37055C34.6966 9.11301 34.7209 8.95266 34.7209 8.77773C34.7209 8.54449 34.7015 8.29668 34.6578 8.18492Z" fill="white"/>
</svg>
