<svg width="38" height="32" viewBox="0 0 38 32" fill="none" xmlns="http://www.w3.org/2000/svg">
<path fill-rule="evenodd" clip-rule="evenodd" d="M18.811 8.94604L18.8837 10.288L17.5401 10.1202C12.702 9.50984 8.20749 7.30013 4.77302 3.84348L2.99814 2.0955L2.54256 3.38885C2.05089 4.74518 1.94543 6.21097 2.23768 7.62359C2.52993 9.03621 3.20869 10.3403 4.19836 11.3911C5.27711 12.541 5.03829 12.6847 3.1864 12.0137C2.53874 11.7975 1.97219 11.6296 1.91552 11.7266C1.99713 12.9831 2.32272 14.2118 2.87461 15.3439C3.73863 16.8387 5.0237 18.0467 6.57014 18.8177L7.88994 19.44L6.32951 19.4645C4.81764 19.4645 4.76916 19.4886 4.91286 20.0705C5.39145 21.1229 6.08787 22.0621 6.95655 22.826C7.82523 23.5898 8.84641 24.1611 9.95241 24.5021L11.6077 25.0781L10.1669 25.941C7.97019 27.1957 5.49715 27.8898 2.9675 27.9618C2.2247 27.9195 1.48018 27.9923 0.759766 28.1779C2.3722 29.199 4.11591 29.9972 5.9431 30.5505C8.86356 31.4118 11.9276 31.6767 14.9529 31.3295C17.9782 30.9823 20.9026 30.0302 23.5511 28.5297C27.5157 26.001 30.6322 22.3465 32.5007 18.0357C33.5086 15.4339 34.1228 12.6965 34.3225 9.91401C34.3225 8.66718 34.3953 8.49958 35.9052 7.01429C36.5895 6.37623 37.216 5.67902 37.7774 4.93084C38.0668 4.42766 38.018 4.42756 36.6498 4.88224C34.3709 5.69056 34.0574 5.57743 35.1867 4.35484C35.9919 3.53663 36.6127 2.55631 37.008 1.4793C37.008 1.38432 36.6033 1.52773 36.1438 1.76619C35.3858 2.1328 34.5996 2.43769 33.7923 2.67767L32.3287 3.15647L31.0094 2.24499C30.3034 1.75633 29.5362 1.36178 28.728 1.07104C27.1786 0.69369 25.5574 0.726421 24.0245 1.16602C22.4244 1.71731 21.0489 2.77601 20.1076 4.18069C19.1663 5.58537 18.7109 7.25889 18.811 8.94604Z" fill="white"/>
</svg>
