<svg width="90" height="90" viewBox="0 0 90 90" fill="none" xmlns="http://www.w3.org/2000/svg">
<path fill-rule="evenodd" clip-rule="evenodd" d="M25.4978 90H64.4977C79.754 90 90 79.2985 90 63.3748V26.6252C90 10.7015 79.754 0 64.5022 0H25.4978C10.246 0 0 10.7015 0 26.6252V63.3748C0 79.2985 10.246 90 25.4978 90ZM29.2449 40.5C23.041 40.5 18 35.4522 18 29.25C18 23.0478 23.041 18 29.2449 18C35.4442 18 40.4897 23.0478 40.4897 29.25C40.4897 35.4522 35.4442 40.5 29.2449 40.5ZM80.1937 58.2028C81.7005 62.0666 80.9177 66.7105 79.3067 70.5372C77.3972 75.0882 73.7409 78.5341 69.1343 80.0387C67.089 80.7074 64.9441 81 62.8037 81H24.8789C21.105 81 17.7655 80.0944 15.0278 78.4087C13.3128 77.3498 13.0096 74.9071 14.2811 73.3235C16.4079 70.6765 18.5076 68.0201 20.6253 65.3406C24.6617 60.2136 27.3813 58.7276 30.404 60.0325C31.6303 60.5712 32.8612 61.3793 34.1282 62.2337C37.5039 64.5279 42.1964 67.6811 48.3777 64.2585C52.6077 61.8894 55.0611 57.8256 57.1976 54.2868L57.2333 54.2276C57.3847 53.9793 57.5348 53.731 57.6844 53.4835C58.4024 52.2954 59.1108 51.1233 59.9122 50.0433C60.9168 48.692 64.6409 44.466 69.4647 47.4752C72.5372 49.37 75.121 51.9334 77.8859 54.678C78.9402 55.7276 79.6914 56.9211 80.1937 58.2028Z" fill="#2D2E36"/>
</svg>
