<svg width="22" height="23" viewBox="0 0 22 23" fill="none" xmlns="http://www.w3.org/2000/svg">
<g clip-path="url(#clip0)">
<path fill-rule="evenodd" clip-rule="evenodd" d="M20.3828 3.04818C20.3828 2.68903 20.2401 2.34459 19.9862 2.09064C19.7322 1.83668 19.3878 1.69401 19.0286 1.69401H2.77865C2.4195 1.69401 2.07506 1.83668 1.82111 2.09064C1.56715 2.34459 1.42448 2.68903 1.42448 3.04818V19.2982C1.42448 19.6573 1.56715 20.0018 1.82111 20.2557C2.07506 20.5097 2.4195 20.6523 2.77865 20.6523H19.0286C19.3878 20.6523 19.7322 20.5097 19.9862 20.2557C20.2401 20.0018 20.3828 19.6573 20.3828 19.2982V3.04818ZM0.0703125 3.04818C0.0703125 2.32988 0.355654 1.64101 0.863565 1.1331C1.37148 0.625185 2.06035 0.339844 2.77865 0.339844L19.0286 0.339844C19.7469 0.339844 20.4358 0.625185 20.9437 1.1331C21.4516 1.64101 21.737 2.32988 21.737 3.04818V19.2982C21.737 20.0165 21.4516 20.7053 20.9437 21.2133C20.4358 21.7212 19.7469 22.0065 19.0286 22.0065H2.77865C2.06035 22.0065 1.37148 21.7212 0.863565 21.2133C0.355654 20.7053 0.0703125 20.0165 0.0703125 19.2982V3.04818ZM7.99761 14.9689C7.87065 15.096 7.69838 15.1675 7.51871 15.1677C7.33904 15.1678 7.16667 15.0965 7.03953 14.9696C6.91239 14.8426 6.8409 14.6704 6.84077 14.4907C6.84064 14.311 6.9119 14.1386 7.03886 14.0115L12.5869 8.46484H8.83854C8.65897 8.46484 8.48675 8.39351 8.35977 8.26653C8.23279 8.13955 8.16146 7.96734 8.16146 7.78776C8.16146 7.60819 8.23279 7.43597 8.35977 7.30899C8.48675 7.18201 8.65897 7.11068 8.83854 7.11068H14.2214C14.4009 7.11068 14.5731 7.18201 14.7001 7.30899C14.8271 7.43597 14.8984 7.60819 14.8984 7.78776V13.1706C14.8984 13.3501 14.8271 13.5224 14.7001 13.6493C14.5731 13.7763 14.4009 13.8477 14.2214 13.8477C14.0418 13.8477 13.8696 13.7763 13.7426 13.6493C13.6156 13.5224 13.5443 13.3501 13.5443 13.1706V9.42224L7.99761 14.9689Z" fill="white"/>
</g>
<defs>
<clipPath id="clip0">
<rect width="21.6667" height="21.6667" fill="white" transform="translate(0.0703125 0.339844)"/>
</clipPath>
</defs>
</svg>
