<svg width="21" height="21" viewBox="0 0 21 21" fill="none" xmlns="http://www.w3.org/2000/svg">
<g clip-path="url(#clip0)">
<path d="M14.6517 3.29824C14.6516 2.56504 14.9093 1.85514 15.3798 1.29276C15.8502 0.730377 16.5035 0.351324 17.2252 0.221915C17.9469 0.0925075 18.6911 0.220986 19.3276 0.584872C19.9642 0.948759 20.4525 1.52488 20.7071 2.21244C20.9618 2.9 20.9666 3.65522 20.7207 4.34596C20.4748 5.0367 19.9938 5.61898 19.362 5.99092C18.7301 6.36287 17.9876 6.50079 17.2643 6.38056C16.541 6.26033 15.883 5.8896 15.4055 5.33325L7.00795 9.23325C7.201 9.84505 7.201 10.5014 7.00795 11.1132L15.4055 15.0132C15.9103 14.4262 16.615 14.0474 17.3832 13.9503C18.1514 13.8532 18.9282 14.0448 19.5632 14.4879C20.1982 14.9309 20.646 15.5939 20.82 16.3484C20.994 17.1029 20.8817 17.8951 20.5049 18.5715C20.1281 19.2479 19.5136 19.7603 18.7806 20.0094C18.0475 20.2586 17.248 20.2267 16.5371 19.92C15.8261 19.6133 15.2544 19.0536 14.9326 18.3493C14.6108 17.6451 14.562 16.8465 14.7955 16.1082L6.39795 12.2082C5.98224 12.6927 5.42814 13.0382 4.81017 13.1984C4.19221 13.3585 3.54003 13.3255 2.94137 13.1038C2.34271 12.8822 1.82629 12.4825 1.46158 11.9586C1.09687 11.4347 0.901367 10.8116 0.901367 10.1732C0.901367 9.53487 1.09687 8.91182 1.46158 8.38789C1.82629 7.86396 2.34271 7.46429 2.94137 7.24265C3.54003 7.02101 4.19221 6.98802 4.81017 7.14814C5.42814 7.30825 5.98224 7.65378 6.39795 8.13825L14.7955 4.23825C14.6999 3.93408 14.6514 3.61708 14.6517 3.29824Z" fill="white"/>
</g>
<defs>
<clipPath id="clip0">
<rect width="20" height="20" fill="white" transform="translate(0.901855 0.172852)"/>
</clipPath>
</defs>
</svg>
