<svg width="24" height="24" viewBox="0 0 24 24" fill="none" xmlns="http://www.w3.org/2000/svg">
<path d="M19.9757 13.5815C19.7307 13.5051 19.4655 13.5287 19.2379 13.6471C19.0102 13.7654 18.8386 13.969 18.7604 14.2134C18.3011 15.6178 17.4057 16.8389 16.2044 17.6992C15.0031 18.5595 13.5587 19.0141 12.0812 18.9967C10.2538 19.0175 8.49271 18.3127 7.18414 17.037C5.87556 15.7612 5.12632 14.0186 5.10069 12.1912C5.12632 10.3638 5.87556 8.62116 7.18414 7.34539C8.49271 6.06962 10.2538 5.36485 12.0812 5.38562C13.7317 5.38164 15.3313 5.95613 16.6021 7.00923L14.4924 6.65923C14.3659 6.63843 14.2366 6.64282 14.1119 6.67217C13.9871 6.70151 13.8694 6.75522 13.7655 6.83021C13.6616 6.90521 13.5736 7 13.5064 7.10914C13.4393 7.21828 13.3944 7.33962 13.3743 7.46618C13.3535 7.59262 13.3579 7.72192 13.3872 7.84666C13.4166 7.9714 13.4703 8.0891 13.5453 8.193C13.6203 8.29691 13.7151 8.38496 13.8242 8.45211C13.9334 8.51925 14.0547 8.56415 14.1812 8.58423L18.3035 9.26479H18.4687C18.5815 9.26466 18.6933 9.24492 18.7993 9.20646C18.8349 9.19294 18.8678 9.17318 18.8965 9.14812C18.9662 9.1222 19.0317 9.08617 19.091 9.04118L19.1785 8.93423C19.1785 8.88562 19.266 8.84673 19.3049 8.7884C19.3437 8.73007 19.3049 8.69118 19.3535 8.65229C19.3803 8.59567 19.4031 8.53718 19.4215 8.47729L20.1507 4.5884C20.1749 4.46073 20.1738 4.32952 20.1474 4.20229C20.1209 4.07505 20.0697 3.95426 19.9965 3.84683C19.9234 3.7394 19.8299 3.64742 19.7212 3.57615C19.6125 3.50488 19.4909 3.45571 19.3632 3.43146C19.2355 3.4072 19.1043 3.40832 18.9771 3.43477C18.8498 3.46122 18.7291 3.51247 18.6216 3.58559C18.4046 3.73328 18.2552 3.96111 18.2062 4.21896L17.9437 5.62868C16.3162 4.21822 14.2349 3.4416 12.0812 3.44118C9.73813 3.42044 7.48248 4.33008 5.80925 5.97049C4.13603 7.61091 3.18191 9.84811 3.15625 12.1912C3.18191 14.5343 4.13603 16.7714 5.80925 18.4119C7.48248 20.0523 9.73813 20.9619 12.0812 20.9412C13.9801 20.9704 15.8382 20.3891 17.3819 19.2829C18.9256 18.1768 20.0734 16.6042 20.6562 14.7967C20.6931 14.6723 20.7047 14.5417 20.6903 14.4126C20.6759 14.2836 20.6358 14.1588 20.5723 14.0455C20.5089 13.9323 20.4234 13.8328 20.321 13.7531C20.2185 13.6734 20.1011 13.6151 19.9757 13.5815Z" fill="white"/>
</svg>
