<svg width="28" height="28" viewBox="0 0 28 28" fill="none" xmlns="http://www.w3.org/2000/svg">
<path d="M24.8844 1.70936e-05H11.3086V18.3129H29.6359V4.73711C29.6356 4.11387 29.5125 3.4968 29.2734 2.92123C29.0344 2.34566 28.6842 1.82289 28.2428 1.38287C27.8014 0.942845 27.2776 0.594205 26.7013 0.356915C26.125 0.119624 25.5076 -0.00165681 24.8844 1.70936e-05Z" fill="white"/>
<path d="M7.07806 0H4.73879C3.48198 0 2.27665 0.499264 1.38796 1.38796C0.499264 2.27665 0 3.48198 0 4.73879L0 7.07806H7.07806V0Z" fill="white"/>
<path d="M0 11.3096H7.07806V18.3876H0V11.3096Z" fill="white"/>
<path d="M22.6191 29.6367H24.9584C25.5818 29.6367 26.199 29.5137 26.7748 29.2748C27.3506 29.0358 27.8735 28.6856 28.3138 28.2443C28.754 27.8029 29.1027 27.279 29.3401 26.7026C29.5775 26.1262 29.6989 25.5086 29.6972 24.8852V22.6189H22.6191V29.6367Z" fill="white"/>
<path d="M11.3086 22.6189H18.3867V29.697H11.3086V22.6189Z" fill="white"/>
<path d="M0 22.6189V24.9582C0 25.5805 0.122572 26.1967 0.360719 26.7716C0.598865 27.3466 0.947922 27.869 1.38796 28.309C1.828 28.749 2.3504 29.0981 2.92533 29.3362C3.50027 29.5744 4.11648 29.697 4.73879 29.697H7.07806V22.6189H0Z" fill="white"/>
</svg>
