<svg width="37" height="37" viewBox="0 0 37 37" fill="none" xmlns="http://www.w3.org/2000/svg">
<path fill-rule="evenodd" clip-rule="evenodd" d="M26.2605 16.6965C25.6023 16.0383 25.6023 14.9712 26.2605 14.313C26.9187 13.6548 27.9858 13.6548 28.644 14.313C29.3022 14.9712 29.3022 16.0383 28.644 16.6965C27.9858 17.3547 26.9187 17.3547 26.2605 16.6965ZM20.5995 22.3575C20.1058 21.8639 20.1058 21.0635 20.5995 20.5698C21.0931 20.0762 21.8935 20.0762 22.3872 20.5698C22.8808 21.0635 22.8808 21.8639 22.3872 22.3575C21.8935 22.8512 21.0931 22.8512 20.5995 22.3575ZM29.5379 19.3781C29.0442 18.8844 29.0442 18.084 29.5379 17.5904C30.0315 17.0967 30.8319 17.0967 31.3256 17.5904C31.8192 18.084 31.8192 18.8844 31.3256 19.3781C30.8319 19.8717 30.0315 19.8717 29.5379 19.3781ZM26.5584 22.3575C26.0648 21.8639 26.0648 21.0635 26.5584 20.5698C27.0521 20.0762 27.8524 20.0762 28.3461 20.5698C28.8397 21.0635 28.8397 21.8639 28.3461 22.3575C27.8524 22.8512 27.0521 22.8512 26.5584 22.3575ZM32.8153 22.0596C32.4862 21.7305 32.4862 21.1969 32.8153 20.8678C33.1444 20.5387 33.678 20.5387 34.0071 20.8678C34.3362 21.1969 34.3362 21.7305 34.0071 22.0596C33.678 22.3887 33.1444 22.3887 32.8153 22.0596ZM29.8358 25.039C29.5067 24.7099 29.5067 24.1764 29.8358 23.8473C30.1649 23.5182 30.6985 23.5182 31.0276 23.8473C31.3567 24.1764 31.3567 24.7099 31.0276 25.039C30.6985 25.3681 30.1649 25.3681 29.8358 25.039ZM23.281 19.676C22.6228 19.0178 22.6228 17.9506 23.281 17.2924C23.9392 16.6342 25.0064 16.6342 25.6646 17.2924C26.3228 17.9506 26.3228 19.0178 25.6646 19.676C25.0064 20.3342 23.9392 20.3342 23.281 19.676ZM23.281 13.7171C22.6228 13.0589 22.6228 11.9917 23.281 11.3335C23.9392 10.6753 25.0064 10.6753 25.6646 11.3335C26.3228 11.9917 26.3228 13.0589 25.6646 13.7171C25.0064 14.3753 23.9392 14.3753 23.281 13.7171ZM20.3015 16.6965C19.6433 16.0383 19.6433 14.9712 20.3015 14.313C20.9597 13.6548 22.0269 13.6548 22.6851 14.313C23.3433 14.9712 23.3433 16.0383 22.6851 16.6965C22.0269 17.3547 20.9597 17.3547 20.3015 16.6965ZM14.3149 16.6965C13.6567 16.0383 13.6567 14.9712 14.3149 14.313C14.9731 13.6548 16.0403 13.6548 16.6985 14.313C17.3567 14.9712 17.3567 16.0383 16.6985 16.6965C16.0403 17.3547 14.9731 17.3547 14.3149 16.6965ZM8.65391 22.3575C8.16025 21.8639 8.16025 21.0635 8.65391 20.5698C9.14756 20.0762 9.94794 20.0762 10.4416 20.5698C10.9352 21.0635 10.9352 21.8639 10.4416 22.3575C9.94794 22.8512 9.14756 22.8512 8.65391 22.3575ZM17.5923 19.3781C17.0987 18.8844 17.0987 18.084 17.5923 17.5904C18.086 17.0967 18.8863 17.0967 19.38 17.5904C19.8736 18.084 19.8736 18.8844 19.38 19.3781C18.8863 19.8717 18.086 19.8717 17.5923 19.3781ZM14.6128 22.3575C14.1192 21.8639 14.1192 21.0635 14.6128 20.5698C15.1065 20.0762 15.9069 20.0762 16.4005 20.5698C16.8942 21.0635 16.8942 21.8639 16.4005 22.3575C15.9069 22.8512 15.1065 22.8512 14.6128 22.3575ZM2.99292 22.0596C2.66382 21.7305 2.66382 21.1969 2.99292 20.8678C3.32202 20.5387 3.85561 20.5387 4.18471 20.8678C4.51381 21.1969 4.51381 21.7305 4.18471 22.0596C3.85561 22.3887 3.32202 22.3887 2.99292 22.0596ZM5.97239 25.039C5.64329 24.7099 5.64329 24.1764 5.97239 23.8473C6.30149 23.5182 6.83507 23.5182 7.16418 23.8473C7.49328 24.1764 7.49328 24.7099 7.16418 25.039C6.83507 25.3681 6.30149 25.3681 5.97239 25.039ZM17.8903 25.039C17.5612 24.7099 17.5612 24.1764 17.8903 23.8473C18.2194 23.5182 18.7529 23.5182 19.082 23.8473C19.4111 24.1764 19.4111 24.7099 19.082 25.039C18.7529 25.3681 18.2194 25.3681 17.8903 25.039ZM5.67444 19.3781C5.18079 18.8844 5.18079 18.084 5.67444 17.5904C6.1681 17.0967 6.96847 17.0967 7.46212 17.5904C7.95578 18.084 7.95578 18.8844 7.46212 19.3781C6.96847 19.8717 6.1681 19.8717 5.67444 19.3781ZM11.3354 19.676C10.6772 19.0178 10.6772 17.9506 11.3354 17.2924C11.9936 16.6342 13.0608 16.6342 13.719 17.2924C14.3772 17.9506 14.3772 19.0178 13.719 19.676C13.0608 20.3342 11.9936 20.3342 11.3354 19.676ZM11.3354 13.7171C10.6772 13.0589 10.6772 11.9917 11.3354 11.3335C11.9936 10.6753 13.0608 10.6753 13.719 11.3335C14.3772 11.9917 14.3772 13.0589 13.719 13.7171C13.0608 14.3753 11.9936 14.3753 11.3354 13.7171ZM8.35596 16.6965C7.69776 16.0383 7.69776 14.9712 8.35596 14.313C9.01417 13.6548 10.0813 13.6548 10.7395 14.313C11.3977 14.9712 11.3977 16.0383 10.7395 16.6965C10.0813 17.3547 9.01417 17.3547 8.35596 16.6965Z" fill="white"/>
</svg>
