<svg width="30" height="30" viewBox="0 0 30 30" fill="none" xmlns="http://www.w3.org/2000/svg">
<g clip-path="url(#clip0)">
<path d="M5.03075 21.1123C5.21149 20.9318 5.45653 20.8303 5.71198 20.8303H29.2852C29.7146 20.8303 29.9296 21.3496 29.6258 21.6531L24.9678 26.3074C24.7871 26.488 24.5421 26.5895 24.2866 26.5895H0.71335C0.283919 26.5895 0.068944 26.0702 0.372719 25.7666L5.03075 21.1123Z" fill="#00FFA3"/>
<path d="M5.03075 3.73491C5.21149 3.55432 5.45653 3.45288 5.71198 3.45288H29.2852C29.7146 3.45288 29.9296 3.97216 29.6258 4.27569L24.9678 8.93003C24.7871 9.1106 24.5421 9.21203 24.2866 9.21203H0.71335C0.283919 9.21203 0.068944 8.69275 0.372719 8.38924L5.03075 3.73491Z" fill="#00FFA3"/>
<path d="M24.9678 12.4024C24.7871 12.2218 24.5421 12.1204 24.2866 12.1204H0.71335C0.283919 12.1204 0.068944 12.6396 0.372719 12.9432L5.03075 17.5975C5.21149 17.778 5.45653 17.8795 5.71198 17.8795H29.2852C29.7146 17.8795 29.9296 17.3602 29.6258 17.0567L24.9678 12.4024Z" fill="#00FFA3"/>
</g>
<defs>
<clipPath id="clip0">
<rect width="30" height="30" fill="white"/>
</clipPath>
</defs>
</svg>
