<svg width="8" height="8" viewBox="0 0 8 8" fill="none" xmlns="http://www.w3.org/2000/svg">
<path d="M0.718712 6.17379C0.52345 6.36905 0.52345 6.68563 0.718712 6.8809C0.913974 7.07616 1.23056 7.07616 1.42582 6.8809L0.718712 6.17379ZM7.42631 0.673299C7.42631 0.397156 7.20245 0.173299 6.92631 0.173299L2.42631 0.173299C2.15017 0.173299 1.92631 0.397157 1.92631 0.673299C1.92631 0.949441 2.15017 1.1733 2.42631 1.1733L6.42631 1.1733L6.42631 5.1733C6.42631 5.44944 6.65017 5.6733 6.92631 5.6733C7.20245 5.6733 7.42631 5.44944 7.42631 5.1733L7.42631 0.673299ZM1.42582 6.8809L7.27986 1.02685L6.57276 0.319746L0.718712 6.17379L1.42582 6.8809Z" fill="white"/>
</svg>
