<svg width="26" height="26" viewBox="0 0 26 26" fill="none" xmlns="http://www.w3.org/2000/svg">
<path d="M7.17391 3.92822H15.3187C16.032 3.92852 16.6129 4.50931 16.6136 5.22322V5.83458H17.2251C17.9385 5.83495 18.5193 6.41596 18.5199 7.12958V7.74139H19.131C19.8449 7.74161 20.425 8.32217 20.4258 9.03642L20.425 21.1247C20.4258 21.839 19.8449 22.4198 19.131 22.4195H13.4088C13.0093 22.4195 12.6259 22.2618 12.342 21.9807L10.8596 20.5131H9.08094C8.36582 20.5134 7.785 19.9326 7.78553 19.2184V18.6064H7.17394C6.45939 18.6067 5.87861 18.0258 5.87928 17.3119L5.87857 5.22326C5.87928 4.50901 6.45935 3.92852 7.17391 3.92822ZM10.714 18.6321H12.2131C12.3923 18.6321 12.5621 18.6684 12.7172 18.7341C13.1817 18.931 13.5079 19.3917 13.5085 19.9274V19.9278V19.9286L13.5079 21.3968H19.131C19.2803 21.3968 19.4028 21.2749 19.4032 21.1247V9.03642C19.4032 8.88637 19.2804 8.76378 19.131 8.76378L10.9862 8.76415C10.8362 8.76415 10.714 8.88637 10.714 9.03582V18.6321H10.714ZM8.80803 19.2184C8.80878 19.3681 8.93092 19.4903 9.0809 19.4903H9.8123C9.76923 19.4443 9.69076 19.3486 9.69076 19.1442C9.69076 16.6173 9.69076 9.03642 9.69076 9.03642C9.69143 8.32243 10.2722 7.74161 10.9868 7.74139H17.4968V7.12939C17.4968 6.97994 17.3751 6.85772 17.2258 6.85772L9.0809 6.85734C8.93092 6.85734 8.80803 6.97994 8.80803 7.12962V19.2184ZM6.9016 17.3119C6.90235 17.4616 7.02445 17.5839 7.17394 17.5839H7.78553L7.785 7.12962C7.78553 6.41577 8.36578 5.83495 9.08094 5.83462H15.5903V5.22296C15.5903 5.07321 15.4681 4.95129 15.3194 4.95129L7.17391 4.95099C7.02445 4.95099 6.90156 5.07321 6.90156 5.22326V17.3119H6.9016Z" fill="white"/>
</svg>
