<svg width="26" height="26" viewBox="0 0 26 26" fill="none" xmlns="http://www.w3.org/2000/svg">
<path d="M5.66433 6.38319C6.59091 5.38724 7.88929 4.82056 9.2496 4.81846C10.611 4.82004 11.9107 5.38642 12.8387 6.38255L13.155 6.71675L13.4713 6.38255C15.3127 4.40068 18.4121 4.28686 20.394 6.12828C20.4818 6.20991 20.5666 6.29469 20.6482 6.38255C22.6016 8.48953 22.6016 11.7458 20.6482 13.8527L13.6198 21.2647C13.3766 21.5214 12.9714 21.5324 12.7147 21.2892C12.7063 21.2813 12.6981 21.2731 12.6902 21.2647L5.66429 13.8527C3.71104 11.746 3.71104 8.48994 5.66433 6.38319ZM6.59072 12.9711H6.59136L13.155 19.8939L19.7193 12.9711C21.2115 11.3612 21.2115 8.87344 19.7193 7.26351C18.3641 5.79471 16.0747 5.70262 14.6059 7.05779C14.5346 7.12359 14.466 7.1922 14.4002 7.26351L13.6198 8.08686C13.3626 8.3424 12.9474 8.3424 12.6902 8.08686L11.9097 7.26415C10.5546 5.79535 8.26524 5.70325 6.79644 7.05843C6.72513 7.12423 6.65652 7.19284 6.59072 7.26415C5.08546 8.87663 5.07443 11.3689 6.59072 12.9711Z" fill="white"/>
</svg>
