<svg width="26" height="26" viewBox="0 0 26 26" fill="none" xmlns="http://www.w3.org/2000/svg">
<path d="M4.77064 13.4845C4.76689 13.4808 4.76689 13.4808 4.76314 13.477C4.75188 13.462 4.74063 13.4508 4.73313 13.4358C4.72938 13.432 4.72937 13.4283 4.72562 13.4245C4.71812 13.4095 4.70687 13.3945 4.69936 13.3795C4.69936 13.3757 4.69561 13.372 4.69561 13.372C4.68811 13.357 4.68061 13.342 4.67311 13.3232C4.67311 13.3195 4.67311 13.3195 4.66935 13.3157C4.66185 13.3007 4.6581 13.282 4.6506 13.2632C4.6506 13.2595 4.6506 13.2557 4.64684 13.2557C4.64309 13.2369 4.63559 13.2219 4.63559 13.2032C4.63559 13.1957 4.63559 13.1919 4.63184 13.1844C4.62809 13.1694 4.62809 13.1544 4.62434 13.1394C4.62059 13.1169 4.62059 13.0981 4.62059 13.0756C4.62059 13.0531 4.62059 13.0344 4.62434 13.0119C4.62434 12.9969 4.62809 12.9819 4.63184 12.9668C4.63184 12.9593 4.63184 12.9556 4.63559 12.9481C4.63934 12.9293 4.64309 12.9143 4.64684 12.8956C4.64684 12.8918 4.64685 12.8881 4.6506 12.8881C4.65435 12.8693 4.66185 12.8543 4.66935 12.8356C4.66935 12.8318 4.66935 12.8318 4.67311 12.828C4.68061 12.813 4.68811 12.7943 4.69561 12.7793C4.69561 12.7755 4.69936 12.7718 4.69936 12.7718C4.70687 12.7568 4.71437 12.7418 4.72562 12.7268C4.72937 12.723 4.72938 12.7193 4.73313 12.7155C4.74438 12.7005 4.75188 12.6855 4.76314 12.6742C4.76689 12.6705 4.76689 12.6705 4.77064 12.6667C4.78565 12.6517 4.7969 12.633 4.81566 12.618L8.52573 8.91165C8.77707 8.66031 9.18597 8.66031 9.43731 8.91165C9.68865 9.16299 9.68865 9.57189 9.43731 9.82323L6.82637 12.4342H17.2063C17.5627 12.4342 17.8516 12.723 17.8516 13.0756C17.8516 13.432 17.5627 13.7209 17.2063 13.7209H6.82262L9.4148 16.313C9.66614 16.5644 9.66614 16.9733 9.4148 17.2246C9.291 17.3484 9.12595 17.4122 8.96089 17.4122C8.79583 17.4122 8.63077 17.3484 8.50697 17.2246L4.81941 13.5371C4.80065 13.5145 4.78565 13.4995 4.77064 13.4845Z" fill="white"/>
<path d="M18.1911 5.17538H13.3894C13.033 5.17538 12.7441 4.88653 12.7441 4.5339C12.7441 4.17753 13.033 3.88867 13.3894 3.88867H18.1911C20.1155 3.88867 21.6836 5.45673 21.6836 7.38117V18.774C21.6836 20.6984 20.1155 22.2665 18.1911 22.2665H13.4682C13.1118 22.2665 12.8229 21.9776 12.8229 21.625C12.8229 21.2686 13.1118 20.9798 13.4682 20.9798H18.1911C19.4065 20.9798 20.3969 19.9894 20.3969 18.774V7.38117C20.3931 6.16198 19.4065 5.17538 18.1911 5.17538Z" fill="white"/>
</svg>
