<svg width="26" height="26" viewBox="0 0 26 26" fill="none" xmlns="http://www.w3.org/2000/svg">
<path d="M13.154 13.7164C11.9166 13.7164 10.9137 12.7131 10.9137 11.4759C10.9137 10.2385 11.9166 9.23535 13.154 9.23535C14.3916 9.23535 15.3945 10.2385 15.3945 11.4759C15.393 12.7126 14.3909 13.7147 13.154 13.7164ZM13.154 10.1064C12.3954 10.1064 11.7804 10.7214 11.7804 11.4802C11.7804 12.2388 12.3954 12.854 13.154 12.854C13.9128 12.854 14.5278 12.2388 14.5278 11.4802C14.5277 10.7215 13.9127 10.1067 13.154 10.1064Z" fill="white"/>
<path d="M13.1528 14.544C14.0695 14.5373 14.9493 14.9052 15.5883 15.5624C16.2384 16.2255 16.5938 17.1269 16.5938 18.1063C16.5931 18.3453 16.3995 18.539 16.1604 18.5397H10.1454C9.90624 18.539 9.71272 18.3453 9.71204 18.1063C9.71204 17.1269 10.0674 16.2255 10.7175 15.5624C11.3564 14.9052 12.2363 14.5373 13.1528 14.544ZM15.6967 17.6729C15.6226 17.1063 15.3671 16.579 14.9686 16.1692C14.4891 15.6839 13.8351 15.4108 13.1528 15.4108C12.4707 15.4108 11.8167 15.6839 11.3372 16.1692C10.9396 16.5794 10.6843 17.1066 10.6091 17.6729H15.6967Z" fill="white"/>
<path d="M7.95193 3.27222H18.3527C19.5492 3.27276 20.5191 4.24255 20.5195 5.43904V20.7802C20.5191 21.9767 19.5492 22.9465 18.3527 22.947H7.95193C6.75544 22.9465 5.78565 21.9767 5.78511 20.7802V5.43904C5.78565 4.24255 6.75544 3.27276 7.95193 3.27222ZM6.65184 20.7802C6.65387 21.4973 7.23485 22.0782 7.95193 22.0803H18.3527C19.0698 22.0782 19.6508 21.4973 19.6528 20.7802V5.43904C19.6508 4.72196 19.0698 4.14098 18.3527 4.13895H7.95193C7.23485 4.14098 6.65387 4.72196 6.65184 5.43904V20.7802Z" fill="white"/>
<path d="M14.9612 6.18021H11.4942C11.2549 6.18021 11.0609 5.98614 11.0609 5.74684C11.0609 5.50754 11.2549 5.31348 11.4942 5.31348H14.9612C15.2006 5.31348 15.3945 5.50754 15.3945 5.74684C15.3945 5.98614 15.2006 6.18021 14.9612 6.18021Z" fill="white"/>
</svg>
