<svg width="26" height="26" viewBox="0 0 26 26" fill="none" xmlns="http://www.w3.org/2000/svg">
<path d="M13.2684 12.8543C11.9973 12.8543 10.8968 12.3985 9.99737 11.499C9.09822 10.5997 8.6422 9.49937 8.6422 8.22817C8.6422 6.9574 9.09808 5.85691 9.99752 4.95732C10.897 4.05817 11.9975 3.60229 13.2684 3.60229C14.5396 3.60229 15.6399 4.05817 16.5392 4.95747C17.4385 5.85676 17.8945 6.95725 17.8945 8.22817C17.8945 9.49937 17.4385 10.5999 16.5392 11.4992C15.6396 12.3983 14.5391 12.8543 13.2684 12.8543ZM15.7432 5.75331C15.0532 5.06327 14.2437 4.72784 13.2684 4.72784C12.2932 4.72784 11.4835 5.06327 10.7934 5.75331C10.1033 6.4435 9.76775 7.25311 9.76775 8.22817C9.76775 9.20351 10.1033 10.013 10.7934 10.7032C11.4835 11.3934 12.2932 11.7288 13.2684 11.7288C14.2434 11.7288 15.0529 11.3932 15.7432 10.7032C16.4334 10.0131 16.769 9.20351 16.769 8.22817C16.769 7.25311 16.4334 6.4435 15.7432 5.75331Z" fill="white"/>
<path d="M5.17852 18.3713C5.20445 17.9971 5.25691 17.5888 5.33414 17.1577C5.4121 16.7234 5.51247 16.3128 5.63263 15.9375C5.7569 15.5496 5.92556 15.1666 6.13438 14.7995C6.35081 14.4185 6.6052 14.0868 6.89065 13.8138C7.18915 13.5282 7.55461 13.2985 7.97722 13.131C8.39837 12.9644 8.86509 12.88 9.36434 12.88C9.5604 12.88 9.75002 12.9605 10.1162 13.1989C10.3416 13.3459 10.6052 13.5159 10.8995 13.7039C11.1511 13.8642 11.4919 14.0144 11.9129 14.1504C12.3236 14.2833 12.7407 14.3507 13.1525 14.3507C13.5639 14.3507 13.981 14.2833 14.392 14.1504C14.8126 14.0145 15.1536 13.8643 15.4047 13.704C15.6962 13.5178 15.96 13.3478 16.1887 13.1987C16.5546 12.9603 16.7442 12.8799 16.9403 12.8799C17.4397 12.8799 17.9063 12.9644 18.3273 13.1312C18.7496 13.2984 19.1152 13.528 19.414 13.8139C19.6994 14.0871 19.9538 14.4187 20.1701 14.7995C20.3786 15.1666 20.5474 15.5495 20.6717 15.9377C20.7917 16.3129 20.8921 16.7234 20.97 17.1577C21.0474 17.5883 21.0997 17.9967 21.1257 18.3718C21.1512 18.7386 21.1641 19.1203 21.1641 19.506C21.1641 20.5086 20.8453 21.3203 20.2168 21.9189C19.5961 22.5095 18.7749 22.8091 17.776 22.8091H8.52776C7.52911 22.8091 6.70792 22.5095 6.08704 21.9189C5.4584 21.3207 5.13968 20.5087 5.13968 19.5058C5.13983 19.1188 5.15287 18.7371 5.17852 18.3713ZM6.8631 21.1034C7.27326 21.4938 7.81779 21.6835 8.52791 21.6835H17.776C18.4863 21.6835 19.0308 21.4938 19.4408 21.1035C19.843 20.7206 20.0385 20.1979 20.0385 19.506C20.0385 19.1461 20.0266 18.7907 20.0029 18.4496C19.9798 18.1149 19.9324 17.7472 19.8622 17.3566C19.7929 16.9707 19.7047 16.6087 19.5998 16.2809C19.4991 15.9665 19.3618 15.6553 19.1915 15.3555C19.029 15.0697 18.842 14.8246 18.6357 14.627C18.4427 14.4423 18.1995 14.291 17.9129 14.1776C17.6478 14.0727 17.3499 14.0152 17.0265 14.0066C16.987 14.0276 16.9168 14.0676 16.8031 14.1417C16.5717 14.2925 16.3051 14.4645 16.0102 14.6528C15.6779 14.8647 15.2497 15.0561 14.7381 15.2212C14.2151 15.3904 13.6818 15.4762 13.1523 15.4762C12.6229 15.4762 12.0893 15.3904 11.5666 15.2214C11.0546 15.056 10.6266 14.8647 10.2938 14.6525C9.9921 14.4597 9.73288 14.2926 9.5015 14.1417C9.38778 14.0677 9.31759 14.0276 9.27817 14.0066C8.95462 14.0152 8.65671 14.0727 8.39148 14.1776C8.105 14.291 7.86175 14.4424 7.66876 14.627C7.46244 14.8244 7.27546 15.0696 7.11295 15.3556C6.94253 15.6553 6.80507 15.9667 6.70455 16.2807C6.59948 16.609 6.51112 16.9709 6.44196 17.3564C6.37191 17.7478 6.32443 18.1156 6.30128 18.4497V18.45C6.2774 18.7899 6.26538 19.1451 6.26523 19.506C6.26538 20.1981 6.46086 20.7206 6.8631 21.1034Z" fill="white"/>
</svg>
