<svg width="16" height="16" viewBox="0 0 16 16" fill="none" xmlns="http://www.w3.org/2000/svg">
<path d="M14.9725 4.50053C14.986 4.37129 14.9148 4.24804 14.7961 4.19523L13.1814 3.47698C13.1137 3.44683 13.0595 3.39263 13.0293 3.32486L12.3103 1.70942C12.2575 1.59073 12.1343 1.51953 12.0051 1.53302L10.2476 1.71656C10.174 1.72425 10.1002 1.70447 10.0403 1.66104L8.61037 0.624025C8.50534 0.547856 8.36324 0.547836 8.25819 0.623976L6.82725 1.66109C6.76737 1.70449 6.69357 1.72425 6.62002 1.71656L4.86353 1.53304C4.73431 1.51954 4.61108 1.59075 4.55827 1.70946L3.83989 3.32401C3.80974 3.39178 3.75555 3.44597 3.68779 3.47613L2.07233 4.19521C1.95364 4.24804 1.88245 4.37126 1.89595 4.50046L2.07959 6.25792C2.08728 6.3315 2.06751 6.40533 2.02408 6.46522L0.987062 7.89519C0.910893 8.00022 0.910874 8.14231 0.987014 8.24737L2.02412 9.6783C2.06753 9.73818 2.08728 9.81199 2.07959 9.88554L1.89597 11.642C1.88246 11.7712 1.95368 11.8945 2.07241 11.9473L3.68703 12.6655C3.75481 12.6957 3.80901 12.7499 3.83917 12.8176L4.55825 14.4331C4.61108 14.5518 4.73429 14.623 4.86349 14.6095L6.62097 14.426C6.69454 14.4183 6.76836 14.438 6.82825 14.4815L8.25822 15.5185C8.36326 15.5947 8.50535 15.5947 8.6104 15.5185L10.0413 14.4814C10.1012 14.438 10.175 14.4183 10.2486 14.426L12.005 14.6095C12.1343 14.623 12.2575 14.5518 12.3103 14.433L13.0286 12.8184C13.0587 12.7506 13.1129 12.6964 13.1807 12.6663L14.7961 11.9473C14.9148 11.8945 14.986 11.7713 14.9725 11.642L14.7889 9.8846C14.7812 9.81102 14.801 9.73719 14.8444 9.67729L15.8815 8.24734C15.9577 8.14231 15.9577 8.0002 15.8816 7.89514L14.8444 6.46423C14.8009 6.40434 14.7812 6.33053 14.7889 6.25697L14.9725 4.50053ZM7.13144 10.8891C7.01429 11.0063 6.82434 11.0063 6.70718 10.8891L4.98807 9.16998C4.87076 9.05268 4.87093 8.86243 4.98845 8.74533L5.2782 8.45664C5.39534 8.33992 5.58485 8.34001 5.70188 8.45683L6.70718 9.46031C6.82437 9.57728 7.01417 9.5772 7.13125 9.46011L10.992 5.59936C11.1092 5.48221 11.2991 5.4822 11.4163 5.59934L11.7065 5.88958C11.8237 6.00673 11.8237 6.19669 11.7066 6.31386L7.13144 10.8891Z" fill="#1E81CE"/>
</svg>
