<svg width="17" height="20" viewBox="0 0 17 20" fill="none" xmlns="http://www.w3.org/2000/svg">
<path d="M11.475 3.81445H2.50565C1.66404 3.81445 0.980469 4.49802 0.980469 5.33964V18.2089C0.980469 19.0505 1.66404 19.734 2.50565 19.734H11.475C12.3166 19.734 13.0002 19.0505 13.0002 18.2089V5.33964C12.9962 4.49802 12.3127 3.81445 11.475 3.81445ZM11.9294 18.2049C11.9294 18.4578 11.7239 18.6633 11.471 18.6633H2.5017C2.24882 18.6633 2.04336 18.4578 2.04336 18.2049V5.33964C2.04336 5.08676 2.24882 4.88129 2.5017 4.88129H11.471C11.7239 4.88129 11.9294 5.08676 11.9294 5.33964V18.2049Z" fill="white"/>
<path d="M14.9047 0.440063H5.93534C5.09372 0.440063 4.41016 1.12363 4.41016 1.96525C4.41016 2.26159 4.64723 2.49867 4.94358 2.49867C5.23992 2.49867 5.47699 2.26159 5.47699 1.96525C5.47699 1.71237 5.68246 1.5069 5.93534 1.5069H14.9047C15.1576 1.5069 15.363 1.71237 15.363 1.96525V14.8345C15.363 15.0874 15.1576 15.2928 14.9047 15.2928C14.6083 15.2928 14.3713 15.5299 14.3713 15.8262C14.3713 16.1226 14.6083 16.3597 14.9047 16.3597C15.7463 16.3597 16.4299 15.6761 16.4299 14.8345V1.96525C16.4299 1.12363 15.7463 0.440063 14.9047 0.440063Z" fill="white"/>
</svg>
